<?xml version="1.0" standalone="no"?>
<!DOCTYPE svg PUBLIC "-//W3C//DTD SVG 20010904//EN"
 "http://www.w3.org/TR/2001/REC-SVG-20010904/DTD/svg10.dtd">
<svg version="1.0" xmlns="http://www.w3.org/2000/svg"
 width="133.000000pt" height="133.000000pt" viewBox="0 0 133.000000 133.000000"
 preserveAspectRatio="xMidYMid meet">

<g transform="translate(0.000000,133.000000) scale(0.100000,-0.100000)"
fill="#000000" stroke="none">
<path d="M735 1059 c-63 -15 -112 -55 -142 -117 -23 -47 -27 -71 -31 -169 l-5
-113 -83 0 -84 0 0 -90 0 -90 85 0 85 0 0 -240 0 -240 105 0 105 0 0 240 0
239 77 3 77 3 12 75 c7 41 13 81 13 88 1 9 -23 12 -89 12 l-90 0 0 88 c0 62 4
94 15 109 18 26 72 43 133 43 l42 0 0 79 0 78 -61 7 c-77 8 -113 7 -164 -5z"/>
</g>
</svg>
