<?xml version="1.0" standalone="no"?>
<!DOCTYPE svg PUBLIC "-//W3C//DTD SVG 20010904//EN"
 "http://www.w3.org/TR/2001/REC-SVG-20010904/DTD/svg10.dtd">
<svg version="1.0" xmlns="http://www.w3.org/2000/svg"
 width="133.000000pt" height="133.000000pt" viewBox="0 0 133.000000 133.000000"
 preserveAspectRatio="xMidYMid meet">

<g transform="translate(0.000000,133.000000) scale(0.100000,-0.100000)"
fill="#000000" stroke="none">
<path d="M865 898 c-27 -12 -126 -52 -220 -90 -224 -92 -405 -178 -405 -193 0
-17 96 -56 156 -62 62 -7 73 -1 259 125 93 63 141 90 144 81 2 -7 -48 -62
-113 -124 -95 -91 -117 -117 -114 -136 2 -17 36 -46 132 -111 71 -49 139 -88
151 -88 43 0 53 28 91 255 20 121 37 252 38 290 l1 70 -35 2 c-19 1 -57 -8
-85 -19z"/>
</g>
</svg>
