<?xml version="1.0" standalone="no"?>
<!DOCTYPE svg PUBLIC "-//W3C//DTD SVG 20010904//EN"
 "http://www.w3.org/TR/2001/REC-SVG-20010904/DTD/svg10.dtd">
<svg version="1.0" xmlns="http://www.w3.org/2000/svg"
 width="554.000000pt" height="554.000000pt" viewBox="0 0 554.000000 554.000000"
 preserveAspectRatio="xMidYMid meet">

<g transform="translate(0.000000,554.000000) scale(0.100000,-0.100000)"
fill="#000000" stroke="none">
<path d="M2403 4240 c-236 -10 -410 -28 -500 -51 -246 -62 -471 -284 -547
-539 -45 -153 -71 -582 -63 -1040 10 -531 29 -666 114 -840 51 -103 66 -125
152 -211 84 -84 109 -102 201 -148 191 -94 373 -115 1010 -115 633 0 820 21
1006 114 218 107 386 327 428 560 54 297 60 1137 11 1515 -19 140 -36 199 -93
310 -37 73 -64 108 -142 186 -85 86 -106 101 -210 152 -131 64 -199 80 -435
97 -199 14 -717 20 -932 10z m1022 -280 c325 -37 444 -117 504 -340 37 -135
43 -226 48 -733 9 -817 -16 -1017 -140 -1154 -83 -91 -189 -130 -413 -154
-165 -18 -1143 -18 -1308 0 -224 24 -330 63 -413 154 -124 136 -149 341 -140
1140 3 265 10 520 16 567 34 269 95 385 237 452 70 33 214 65 344 78 122 12
1144 4 1265 -10z"/>
<path d="M3473 3680 c-34 -20 -83 -104 -83 -140 0 -24 72 -105 111 -126 40
-20 106 -18 139 6 31 22 60 85 60 131 0 44 -23 91 -59 122 -41 34 -118 38
-168 7z"/>
<path d="M2625 3489 c-251 -42 -475 -230 -546 -458 -31 -102 -43 -245 -29
-362 22 -188 75 -304 195 -425 64 -66 96 -89 165 -122 114 -54 217 -76 360
-76 372 0 629 193 706 529 26 112 23 311 -5 418 -30 115 -84 210 -166 292
-116 117 -217 173 -363 201 -79 15 -236 17 -317 3z m297 -248 c149 -57 291
-225 344 -406 15 -52 15 -68 5 -120 -40 -195 -195 -363 -396 -430 -104 -35
-148 -30 -272 30 -174 85 -295 230 -324 389 -34 190 84 397 291 510 109 59
241 69 352 27z"/>
</g>
</svg>
